<svg width="16" height="16" viewBox="0 0 16 16" fill="none" xmlns="http://www.w3.org/2000/svg">
<path opacity="0.25" d="M3.20026 16C3.03149 16.0002 2.86697 15.947 2.73026 15.848C2.48974 15.6735 2.36575 15.3801 2.40826 15.086L3.15126 9.883L0.234263 6.966C0.0223524 6.75403 -0.053298 6.4414 0.0382633 6.156C0.129571 5.87083 0.372833 5.66078 0.668263 5.612L5.06626 4.878L7.28426 0.443C7.42171 0.171548 7.7 0.000323899 8.00426 0C8.30882 0.00166772 8.58602 0.176126 8.71926 0.45L10.8423 4.812L15.3403 5.613C15.6336 5.66511 15.8736 5.87589 15.9633 6.16C16.0532 6.44455 15.9768 6.75549 15.7653 6.966L12.8483 9.883L13.5923 15.086C13.6345 15.3817 13.5084 15.6764 13.2653 15.85C13.0231 16.024 12.7043 16.0486 12.4383 15.914L8.05626 13.694L3.55426 15.917C3.4443 15.9717 3.3231 16.0002 3.20026 16Z" fill="#7171A6"/>
</svg>
