<svg width="20" height="20" viewBox="0 0 20 20" fill="none" xmlns="http://www.w3.org/2000/svg">
<path opacity="0.25" fill-rule="evenodd" clip-rule="evenodd" d="M19 2H16V1C16 0.447715 15.5523 0 15 0C14.4477 0 14 0.447715 14 1V2H6V1C6 0.447715 5.55228 0 5 0C4.44772 0 4 0.447715 4 1V2H1C0.447715 2 0 2.44772 0 3V19C0 19.5523 0.447715 20 1 20H19C19.5523 20 20 19.5523 20 19V3C20 2.44772 19.5523 2 19 2ZM2 18H18V8H2V18ZM2 6H18V4H2V6ZM6 10C5.44772 10 5 10.4477 5 11C5 11.5523 5.44772 12 6 12C6.55228 12 7 11.5523 7 11C7 10.4477 6.55228 10 6 10ZM6 14C5.44772 14 5 14.4477 5 15C5 15.5523 5.44772 16 6 16C6.55228 16 7 15.5523 7 15C7 14.4477 6.55228 14 6 14ZM10 14C9.44771 14 9 14.4477 9 15C9 15.5523 9.44771 16 10 16C10.5523 16 11 15.5523 11 15C11 14.4477 10.5523 14 10 14ZM10 10C9.44771 10 9 10.4477 9 11C9 11.5523 9.44771 12 10 12C10.5523 12 11 11.5523 11 11C11 10.4477 10.5523 10 10 10ZM14 10C13.4477 10 13 10.4477 13 11C13 11.5523 13.4477 12 14 12C14.5523 12 15 11.5523 15 11C15 10.4477 14.5523 10 14 10Z" fill="#405ADD"/>
</svg>
