<svg width="40" height="28" viewBox="0 0 40 28" fill="none" xmlns="http://www.w3.org/2000/svg">
<path fill-rule="evenodd" clip-rule="evenodd" d="M23.9465 11.1619V13.8792V16.0268C23.9465 22.6394 18.5859 28 11.9732 28C5.3606 28 0 22.6394 0 16.0268V13.8792V11.4801C0 9.32088 1.75043 7.57045 3.90969 7.57045C6.069 7.57045 7.81945 9.32096 7.81937 11.4803L7.81925 15.0965V16.0552C7.81925 18.3494 9.67905 20.2092 11.9732 20.2092C13.9998 20.2092 15.6874 18.758 16.0535 16.8381V14.1208V11.9732C16.0535 5.36059 21.4141 0 28.0268 0C34.6394 0 40 5.36059 40 11.9732V14.1208V16.5197C40 18.679 38.2495 20.4296 36.0901 20.4296C33.9306 20.4296 32.18 18.6788 32.1803 16.5192L32.1807 12.9035V11.9448C32.1807 9.65061 30.321 7.79081 28.0268 7.79081C26.0002 7.79081 24.3126 9.24203 23.9465 11.1619Z" fill="white"/>
</svg>
