<svg width="141" height="22" viewBox="0 0 141 22" fill="none" xmlns="http://www.w3.org/2000/svg">
<path fill-rule="evenodd" clip-rule="evenodd" d="M65.6561 5.12398C66.0108 5.12398 66.3514 5.05865 66.6781 4.92798C67.0048 4.79732 67.2848 4.61998 67.5181 4.39598C67.7514 4.17198 67.9381 3.90598 68.0781 3.59798C68.2181 3.28998 68.2881 2.95865 68.2881 2.60398C68.2881 2.24932 68.2181 1.91798 68.0781 1.60998C67.9381 1.30198 67.7514 1.03598 67.5181 0.811984C67.2848 0.587984 67.0048 0.410651 66.6781 0.279984C66.3514 0.149318 66.0108 0.0839844 65.6561 0.0839844C65.2828 0.0839844 64.9374 0.153984 64.6201 0.293984C64.3028 0.433984 64.0228 0.615984 63.7801 0.839984C63.5374 1.06398 63.3508 1.32998 63.2201 1.63798C63.0895 1.94598 63.0241 2.26798 63.0241 2.60398C63.0241 3.29465 63.2761 3.88732 63.7801 4.38198C64.2841 4.87665 64.9094 5.12398 65.6561 5.12398ZM10.7881 21.532C12.4681 21.532 13.9521 21.238 15.2401 20.65C16.5281 20.062 17.6108 19.264 18.4881 18.256L15.1561 15.12C14.7268 15.7173 14.1575 16.2027 13.4481 16.576C12.7388 16.9493 11.9081 17.136 10.9561 17.136C10.1348 17.136 9.37878 16.9867 8.68812 16.688C7.99745 16.3893 7.40478 15.974 6.91012 15.442C6.41545 14.91 6.02812 14.2707 5.74812 13.524C5.46812 12.7773 5.32812 11.956 5.32812 11.06C5.32812 10.1827 5.46812 9.37532 5.74812 8.63798C6.02812 7.90065 6.42012 7.26132 6.92412 6.71998C7.42812 6.17865 8.03012 5.75398 8.73012 5.44598C9.43012 5.13798 10.2001 4.98398 11.0401 4.98398C11.8055 4.98398 12.5521 5.13332 13.2801 5.43198C14.0081 5.73065 14.5961 6.18798 15.0441 6.80398L18.2921 3.55598C17.4521 2.60398 16.3554 1.88065 15.0021 1.38598C13.6488 0.891318 12.2721 0.643984 10.8721 0.643984C9.36012 0.643984 7.95078 0.886651 6.64412 1.37198C5.33745 1.85732 4.19878 2.55265 3.22812 3.45798C2.25745 4.36332 1.49678 5.45998 0.946117 6.74798C0.39545 8.03598 0.120117 9.47332 0.120117 11.06C0.120117 12.6093 0.390784 14.028 0.932117 15.316C1.47345 16.604 2.22012 17.71 3.17212 18.634C4.12412 19.558 5.24878 20.272 6.54612 20.776C7.84345 21.28 9.25745 21.532 10.7881 21.532ZM26.7221 21.448C27.7861 21.448 28.7848 21.2707 29.7181 20.916C30.6515 20.5613 31.4728 20.062 32.1821 19.418C32.8914 18.774 33.4515 17.99 33.8621 17.066C34.2728 16.142 34.4781 15.1107 34.4781 13.972C34.4781 12.8333 34.2728 11.8067 33.8621 10.892C33.4515 9.97732 32.8914 9.20265 32.1821 8.56798C31.4728 7.93332 30.6515 7.44798 29.7181 7.11198C28.7848 6.77598 27.7861 6.60798 26.7221 6.60798C25.6768 6.60798 24.6828 6.77598 23.7401 7.11198C22.7975 7.44798 21.9761 7.93332 21.2761 8.56798C20.5761 9.20265 20.0208 9.97732 19.6101 10.892C19.1995 11.8067 18.9941 12.8333 18.9941 13.972C18.9941 15.1107 19.1995 16.142 19.6101 17.066C20.0208 17.99 20.5761 18.774 21.2761 19.418C21.9761 20.062 22.7975 20.5613 23.7401 20.916C24.6828 21.2707 25.6768 21.448 26.7221 21.448ZM25.3221 17.276C25.7328 17.4813 26.2088 17.584 26.7501 17.584C27.2915 17.584 27.7675 17.4813 28.1781 17.276C28.5888 17.0707 28.9341 16.7953 29.2141 16.45C29.4941 16.1047 29.7041 15.7173 29.8441 15.288C29.9841 14.8587 30.0541 14.42 30.0541 13.972C30.0541 13.524 29.9795 13.0853 29.8301 12.656C29.6808 12.2267 29.4661 11.8487 29.1861 11.522C28.9061 11.1953 28.5608 10.9293 28.1501 10.724C27.7395 10.5187 27.2635 10.416 26.7221 10.416C26.1808 10.416 25.7048 10.5187 25.2941 10.724C24.8835 10.9293 24.5428 11.1953 24.2721 11.522C24.0015 11.8487 23.7961 12.2267 23.6561 12.656C23.5161 13.0853 23.4461 13.524 23.4461 13.972C23.4461 14.42 23.5161 14.8587 23.6561 15.288C23.7961 15.7173 24.0061 16.1047 24.2861 16.45C24.5661 16.7953 24.9115 17.0707 25.3221 17.276ZM40.7601 21V13.44C40.7601 13.048 40.8115 12.67 40.9141 12.306C41.0168 11.942 41.1708 11.62 41.3761 11.34C41.5815 11.06 41.8381 10.8407 42.1461 10.682C42.4541 10.5233 42.8134 10.444 43.2241 10.444C43.6348 10.444 43.9755 10.5233 44.2461 10.682C44.5168 10.8407 44.7268 11.0553 44.8761 11.326C45.0255 11.5967 45.1328 11.9093 45.1981 12.264C45.2635 12.6187 45.2961 12.992 45.2961 13.384V21H49.9161V12.376C49.9161 11.6853 49.8274 10.9947 49.6501 10.304C49.4728 9.61332 49.1835 9.00198 48.7821 8.46998C48.3808 7.93798 47.8535 7.50398 47.2001 7.16798C46.5468 6.83198 45.7535 6.66398 44.8201 6.66398C44.3348 6.66398 43.8775 6.72932 43.4481 6.85998C43.0188 6.99065 42.6221 7.15865 42.2581 7.36398C41.8941 7.56932 41.5768 7.81665 41.3061 8.10598C41.0354 8.39532 40.8161 8.68932 40.6481 8.98798H40.5921V7.05598H36.1401V21H40.7601ZM60.0541 21.21C59.5688 21.294 59.0835 21.336 58.5981 21.336C57.6648 21.336 56.8808 21.2193 56.2461 20.986C55.6115 20.7527 55.1028 20.4167 54.7201 19.978C54.3375 19.5393 54.0621 19.0167 53.8941 18.41C53.7261 17.8033 53.6421 17.1266 53.6421 16.38V10.5H51.4021V7.05598H53.6141V3.38798H58.1221V7.05598H61.3981V10.5H58.1221V15.82C58.1221 16.4733 58.2481 16.9633 58.5001 17.29C58.7521 17.6167 59.2048 17.78 59.8581 17.78C60.0821 17.78 60.3201 17.7613 60.5721 17.724C60.8241 17.6867 61.0341 17.6307 61.2021 17.556L61.2581 20.916C60.9408 21.028 60.5395 21.126 60.0541 21.21ZM67.9521 7.05598V21H63.3601V7.05598H67.9521ZM74.9621 21V13.44C74.9621 13.048 75.0135 12.67 75.1161 12.306C75.2188 11.942 75.3728 11.62 75.5781 11.34C75.7834 11.06 76.0401 10.8407 76.3481 10.682C76.6561 10.5233 77.0154 10.444 77.4261 10.444C77.8368 10.444 78.1775 10.5233 78.4481 10.682C78.7188 10.8407 78.9288 11.0553 79.0781 11.326C79.2274 11.5967 79.3348 11.9093 79.4001 12.264C79.4654 12.6187 79.4981 12.992 79.4981 13.384V21H84.1181V12.376C84.1181 11.6853 84.0294 10.9947 83.8521 10.304C83.6748 9.61332 83.3855 9.00198 82.9841 8.46998C82.5828 7.93798 82.0555 7.50398 81.4021 7.16798C80.7488 6.83198 79.9555 6.66398 79.0221 6.66398C78.5368 6.66398 78.0795 6.72932 77.6501 6.85998C77.2208 6.99065 76.8241 7.15865 76.4601 7.36398C76.0961 7.56932 75.7788 7.81665 75.5081 8.10598C75.2374 8.39532 75.0181 8.68932 74.8501 8.98798H74.7941V7.05598H70.3421V21H74.9621ZM92.6541 21.196C92.2155 21.3267 91.7534 21.392 91.2681 21.392C90.3348 21.392 89.5461 21.224 88.9021 20.888C88.2581 20.552 87.7355 20.118 87.3341 19.586C86.9328 19.054 86.6435 18.4473 86.4661 17.766C86.2888 17.0847 86.2001 16.3893 86.2001 15.68V7.05598H90.8201V14.616C90.8201 15.008 90.8481 15.3813 90.9041 15.736C90.9601 16.0907 91.0675 16.408 91.2261 16.688C91.3848 16.968 91.5948 17.1873 91.8561 17.346C92.1175 17.5047 92.4628 17.584 92.8921 17.584C93.6948 17.584 94.3061 17.2853 94.7261 16.688C95.1461 16.0907 95.3561 15.3907 95.3561 14.588V7.05598H99.9481V21H95.5241V19.068H95.4681C95.3001 19.3853 95.0808 19.684 94.8101 19.964C94.5395 20.244 94.2221 20.4867 93.8581 20.692C93.4941 20.8973 93.0928 21.0653 92.6541 21.196ZM107.21 21.392C107.695 21.392 108.157 21.3267 108.596 21.196C109.035 21.0653 109.436 20.8973 109.8 20.692C110.164 20.4867 110.481 20.244 110.752 19.964C111.023 19.684 111.242 19.3853 111.41 19.068H111.466V21H115.89V7.05598H111.298V14.588C111.298 15.3907 111.088 16.0907 110.668 16.688C110.248 17.2853 109.637 17.584 108.834 17.584C108.405 17.584 108.059 17.5047 107.798 17.346C107.537 17.1873 107.327 16.968 107.168 16.688C107.009 16.408 106.902 16.0907 106.846 15.736C106.79 15.3813 106.762 15.008 106.762 14.616V7.05598H102.142V15.68C102.142 16.3893 102.231 17.0847 102.408 17.766C102.585 18.4473 102.875 19.054 103.276 19.586C103.677 20.118 104.2 20.552 104.844 20.888C105.488 21.224 106.277 21.392 107.21 21.392ZM122.844 13.44V21H118.224V7.05598H122.676V8.98798H122.732C122.9 8.68932 123.11 8.39998 123.362 8.11998C123.614 7.83998 123.917 7.59265 124.272 7.37798C124.627 7.16332 125.023 6.99065 125.462 6.85998C125.901 6.72932 126.381 6.66398 126.904 6.66398C127.912 6.66398 128.766 6.86932 129.466 7.27998C130.166 7.69065 130.712 8.27865 131.104 9.04398C131.571 8.31598 132.168 7.73732 132.896 7.30798C133.624 6.87865 134.511 6.66398 135.556 6.66398C136.508 6.66398 137.306 6.83665 137.95 7.18198C138.594 7.52732 139.112 7.97532 139.504 8.52598C139.896 9.07665 140.181 9.69265 140.358 10.374C140.535 11.0553 140.624 11.7227 140.624 12.376V21H136.032V13.384C136.032 12.992 136.004 12.614 135.948 12.25C135.892 11.886 135.789 11.5733 135.64 11.312C135.491 11.0507 135.29 10.8407 135.038 10.682C134.786 10.5233 134.455 10.444 134.044 10.444C133.652 10.444 133.311 10.528 133.022 10.696C132.733 10.864 132.49 11.088 132.294 11.368C132.098 11.648 131.953 11.97 131.86 12.334C131.767 12.698 131.72 13.076 131.72 13.468V21H127.128V13.048C127.128 12.2453 126.969 11.6107 126.652 11.144C126.335 10.6773 125.831 10.444 125.14 10.444C124.412 10.444 123.847 10.7333 123.446 11.312C123.045 11.8907 122.844 12.6 122.844 13.44Z" fill="white"/>
</svg>
