<svg xmlns="http://www.w3.org/2000/svg" width="24" height="24" viewBox="0 0 24 24">
  <path id="Combined_Shape" data-name="Combined Shape" d="M10.8,22.8a1.2,1.2,0,0,0-1.2-1.2H1.2A1.2,1.2,0,0,1,0,20.4V1.2A1.2,1.2,0,0,1,1.2,0H9.6A3.584,3.584,0,0,1,12,.919,3.6,3.6,0,0,1,14.4,0h8.4A1.2,1.2,0,0,1,24,1.2V20.4a1.2,1.2,0,0,1-1.2,1.2H14.4a1.2,1.2,0,0,0-1.2,1.2,1.2,1.2,0,1,1-2.4,0ZM13.2,3.6V19.415a3.565,3.565,0,0,1,1.2-.215h7.2V2.4H14.4A1.2,1.2,0,0,0,13.2,3.6ZM2.4,19.2H9.6a3.524,3.524,0,0,1,1.2.215V3.6A1.2,1.2,0,0,0,9.6,2.4H2.4ZM6,16.8a1.2,1.2,0,1,1,0-2.4H7.2a1.2,1.2,0,1,1,0,2.4ZM16.8,12a1.2,1.2,0,0,1,0-2.4H18A1.2,1.2,0,0,1,18,12ZM6,12A1.2,1.2,0,0,1,6,9.6H7.2a1.2,1.2,0,0,1,0,2.4ZM16.8,7.2a1.2,1.2,0,0,1,0-2.4H18a1.2,1.2,0,0,1,0,2.4ZM6,7.2A1.2,1.2,0,0,1,6,4.8H7.2a1.2,1.2,0,0,1,0,2.4Z" fill="#293340" opacity="0.25"/>
</svg>
