<svg xmlns="http://www.w3.org/2000/svg" width="24" height="24" viewBox="0 0 24 24">
  <path id="Combined_Shape" data-name="Combined Shape" d="M21.668,23.8l-3.477-1.854-2.13,1.7A1.709,1.709,0,0,1,15,24H15a1.684,1.684,0,0,1-1.057-.352L12,22.1,10.06,23.648a1.773,1.773,0,0,1-2.12,0l-2.13-1.7L2.333,23.8A1.778,1.778,0,0,1,1.5,24a1.82,1.82,0,0,1-.708-.142A1.191,1.191,0,0,1,0,22.8V1.2A1.377,1.377,0,0,1,1.5,0h21A1.377,1.377,0,0,1,24,1.2V22.8a1.193,1.193,0,0,1-.793,1.058A1.816,1.816,0,0,1,22.5,24,1.774,1.774,0,0,1,21.668,23.8Zm-8.425-4.247L15.333,21.1l2.091-1.552a1.923,1.923,0,0,1,1.144-.352,2.025,2.025,0,0,1,.9.2L21.8,20.559V2.4H2.4V20.559L4.736,19.4a2.023,2.023,0,0,1,.9-.2,1.915,1.915,0,0,1,1.144.353L8.867,21.1l2.09-1.552a2.028,2.028,0,0,1,2.286,0ZM6,11.277l1.93-1.9,2.859,2.807L17.07,6,19,7.9,10.789,16Z" fill="#405add" opacity="0.75"/>
</svg>
