<svg width="16" height="16" viewBox="0 0 16 16" fill="none" xmlns="http://www.w3.org/2000/svg">
<path fill-rule="evenodd" clip-rule="evenodd" d="M9.41387 7.99987L15.7069 1.70687C16.0973 1.31641 16.0973 0.683337 15.7069 0.292872C15.3164 -0.0975935 14.6833 -0.0975935 14.2929 0.292872L7.99987 6.58587L1.70687 0.292872C1.45428 0.040285 1.08613 -0.0583614 0.741092 0.0340918C0.396052 0.126545 0.126545 0.396052 0.0340918 0.741092C-0.0583614 1.08613 0.040285 1.45428 0.292872 1.70687L6.58587 7.99987L0.292872 14.2929C-0.0975935 14.6833 -0.0975935 15.3164 0.292872 15.7069C0.683337 16.0973 1.31641 16.0973 1.70687 15.7069L7.99987 9.41387L14.2929 15.7069C14.48 15.8951 14.7345 16.0009 14.9999 16.0009C15.2653 16.0009 15.5197 15.8951 15.7069 15.7069C15.8946 15.5195 16.0001 15.2651 16.0001 14.9999C16.0001 14.7346 15.8946 14.4803 15.7069 14.2929L9.41387 7.99987Z" fill="#647BF0"/>
</svg>
