<svg width="16" height="16" viewBox="0 0 16 16" fill="none" xmlns="http://www.w3.org/2000/svg">
<path fill-rule="evenodd" clip-rule="evenodd" d="M16 10C16 9.44771 15.5523 9 15 9C14.4477 9 14 9.44771 14 10V14H2V2H6C6.55228 2 7 1.55228 7 1C7 0.447715 6.55228 0 6 0H1C0.447715 0 0 0.447715 0 1V15C0 15.5523 0.447715 16 1 16H15C15.5523 16 16 15.5523 16 15V10ZM16 1C16 0.447715 15.5523 0 15 0H10C9.44771 0 9 0.447715 9 1C9 1.55228 9.44771 2 10 2H12.586L7.293 7.293C7.10528 7.4804 6.9998 7.73475 6.9998 8C6.9998 8.26525 7.10528 8.5196 7.293 8.707C7.48013 8.89521 7.73459 9.00103 8 9.00103C8.26541 9.00103 8.51987 8.89521 8.707 8.707L14 3.414V6C14 6.55228 14.4477 7 15 7C15.5523 7 16 6.55228 16 6V1Z" fill="#43BFDD"/>
</svg>
