<svg width="60" height="60" viewBox="0 0 60 60" fill="none" xmlns="http://www.w3.org/2000/svg">
<circle cx="30" cy="30" r="30" fill="#F1EFFC"/>
<path fill-rule="evenodd" clip-rule="evenodd" d="M20 16.875C20 15.8395 20.8395 15 21.875 15H38.75C39.7855 15 40.625 15.8395 40.625 16.875V43.125C40.625 44.1605 39.7855 45 38.75 45H21.875C20.8395 45 20 44.1605 20 43.125V16.875ZM22.875 18.5C22.875 18.1548 23.1548 17.875 23.5 17.875H25.6655C25.8745 17.875 26.0696 17.9794 26.1855 18.1533L26.8789 19.1934C27.1107 19.5411 27.501 19.75 27.919 19.75H32.706C33.124 19.75 33.5143 19.5411 33.7461 19.1934L34.4395 18.1533C34.5554 17.9794 34.7505 17.875 34.9595 17.875H37.125C37.4702 17.875 37.75 18.1548 37.75 18.5V41.5C37.75 41.8452 37.4702 42.125 37.125 42.125H23.5C23.1548 42.125 22.875 41.8452 22.875 41.5V18.5ZM28.125 39C27.7798 39 27.5 39.2798 27.5 39.625C27.5 39.9702 27.7798 40.25 28.125 40.25H32.5C32.8452 40.25 33.125 39.9702 33.125 39.625C33.125 39.2798 32.8452 39 32.5 39H28.125Z" fill="#405ADD"/>
</svg>
