<svg width="60" height="60" viewBox="0 0 60 60" fill="none" xmlns="http://www.w3.org/2000/svg">
<circle cx="30" cy="30" r="30" fill="#F1EFFC"/>
<path fill-rule="evenodd" clip-rule="evenodd" d="M20.5816 18.333C19.9366 18.8535 19.8376 19.7985 20.3581 20.4435C20.8786 21.087 21.822 21.1875 22.4685 20.667C24.6254 18.9225 27.2293 18 29.9997 18C32.7715 18 35.3754 18.9225 37.5323 20.667C37.8113 20.8905 38.1443 21 38.4743 21C38.9123 21 39.3457 20.8095 39.6427 20.4435C40.1632 19.7985 40.0642 18.8535 39.4192 18.333C36.7614 16.1835 33.415 15 29.9997 15C26.5858 15 23.2395 16.1835 20.5816 18.333ZM16.5018 24C15.9828 24 15.4788 24.2685 15.2013 24.75C14.7874 25.467 15.0319 26.385 15.7503 26.799C15.9858 26.9355 16.2453 27 16.4988 27C17.0178 27 17.5217 26.7315 17.7992 26.25C18.2147 25.5315 17.9687 24.615 17.2503 24.201C17.0148 24.0645 16.7568 24 16.5018 24ZM25.3439 42.7485C25.0814 43.275 24.5489 43.5795 23.9984 43.5795C23.775 43.5795 23.5455 43.53 23.3325 43.422C18.7382 41.136 15.6588 36.741 15.0964 31.665C15.0064 30.8415 15.5988 30.1005 16.4223 30.009C17.2788 29.922 17.9882 30.513 18.0797 31.335C18.5297 35.3925 20.9911 38.907 24.6674 40.737C25.4099 41.106 25.7129 42.006 25.3439 42.7485ZM36.6669 43.4235C41.2626 41.136 44.342 36.7395 44.903 31.665C44.993 30.8415 44.4005 30.1005 43.5755 30.009C42.7506 29.925 42.0111 30.513 41.9196 31.335C41.4711 35.3925 39.0083 38.907 35.3319 40.7385C34.5895 41.1075 34.2865 42.0075 34.6555 42.75C34.9179 43.2765 35.4504 43.581 36.0009 43.581C36.2244 43.581 36.4539 43.53 36.6669 43.4235ZM29.9997 45C30.8291 45 31.4996 44.328 31.4996 43.5C31.4996 42.672 30.8291 42 29.9997 42C29.1717 42 28.4997 42.672 28.4997 43.5C28.4997 44.328 29.1717 45 29.9997 45ZM42.2001 26.25C41.7861 25.5315 42.0306 24.615 42.7491 24.201C42.9846 24.0645 43.2441 24 43.4975 24C44.0165 24 44.5205 24.2685 44.798 24.75C45.2135 25.467 44.9675 26.385 44.249 26.799C44.0135 26.9355 43.7555 27 43.5005 27C42.9816 27 42.4776 26.7315 42.2001 26.25ZM34.4995 30C34.4995 32.481 32.4806 34.5 29.9997 34.5C27.5188 34.5 25.4999 32.481 25.4999 30C25.4999 27.519 27.5188 25.5 29.9997 25.5C32.4806 25.5 34.4995 27.519 34.4995 30ZM29.9997 37.5C25.8644 37.5 22.5 34.1355 22.5 30C22.5 25.8645 25.8644 22.5 29.9997 22.5C34.135 22.5 37.4993 25.8645 37.4993 30C37.4993 34.1355 34.135 37.5 29.9997 37.5Z" fill="#405ADD"/>
<mask id="mask0" mask-type="alpha" maskUnits="userSpaceOnUse" x="15" y="15" width="30" height="30">
<path fill-rule="evenodd" clip-rule="evenodd" d="M20.5816 18.333C19.9366 18.8535 19.8376 19.7985 20.3581 20.4435C20.8786 21.087 21.822 21.1875 22.4685 20.667C24.6254 18.9225 27.2293 18 29.9997 18C32.7715 18 35.3754 18.9225 37.5323 20.667C37.8113 20.8905 38.1443 21 38.4743 21C38.9123 21 39.3457 20.8095 39.6427 20.4435C40.1632 19.7985 40.0642 18.8535 39.4192 18.333C36.7614 16.1835 33.415 15 29.9997 15C26.5858 15 23.2395 16.1835 20.5816 18.333ZM16.5018 24C15.9828 24 15.4788 24.2685 15.2013 24.75C14.7874 25.467 15.0319 26.385 15.7503 26.799C15.9858 26.9355 16.2453 27 16.4988 27C17.0178 27 17.5217 26.7315 17.7992 26.25C18.2147 25.5315 17.9687 24.615 17.2503 24.201C17.0148 24.0645 16.7568 24 16.5018 24ZM25.3439 42.7485C25.0814 43.275 24.5489 43.5795 23.9984 43.5795C23.775 43.5795 23.5455 43.53 23.3325 43.422C18.7382 41.136 15.6588 36.741 15.0964 31.665C15.0064 30.8415 15.5988 30.1005 16.4223 30.009C17.2788 29.922 17.9882 30.513 18.0797 31.335C18.5297 35.3925 20.9911 38.907 24.6674 40.737C25.4099 41.106 25.7129 42.006 25.3439 42.7485ZM36.6669 43.4235C41.2626 41.136 44.342 36.7395 44.903 31.665C44.993 30.8415 44.4005 30.1005 43.5755 30.009C42.7506 29.925 42.0111 30.513 41.9196 31.335C41.4711 35.3925 39.0083 38.907 35.3319 40.7385C34.5895 41.1075 34.2865 42.0075 34.6555 42.75C34.9179 43.2765 35.4504 43.581 36.0009 43.581C36.2244 43.581 36.4539 43.53 36.6669 43.4235ZM29.9997 45C30.8291 45 31.4996 44.328 31.4996 43.5C31.4996 42.672 30.8291 42 29.9997 42C29.1717 42 28.4997 42.672 28.4997 43.5C28.4997 44.328 29.1717 45 29.9997 45ZM42.2001 26.25C41.7861 25.5315 42.0306 24.615 42.7491 24.201C42.9846 24.0645 43.2441 24 43.4975 24C44.0165 24 44.5205 24.2685 44.798 24.75C45.2135 25.467 44.9675 26.385 44.249 26.799C44.0135 26.9355 43.7555 27 43.5005 27C42.9816 27 42.4776 26.7315 42.2001 26.25ZM34.4995 30C34.4995 32.481 32.4806 34.5 29.9997 34.5C27.5188 34.5 25.4999 32.481 25.4999 30C25.4999 27.519 27.5188 25.5 29.9997 25.5C32.4806 25.5 34.4995 27.519 34.4995 30ZM29.9997 37.5C25.8644 37.5 22.5 34.1355 22.5 30C22.5 25.8645 25.8644 22.5 29.9997 22.5C34.135 22.5 37.4993 25.8645 37.4993 30C37.4993 34.1355 34.135 37.5 29.9997 37.5Z" fill="white"/>
</mask>
<g mask="url(#mask0)">
</g>
</svg>
