<svg width="60" height="60" viewBox="0 0 60 60" fill="none" xmlns="http://www.w3.org/2000/svg">
<circle cx="30" cy="30" r="30" fill="#F1EFFC"/>
<path fill-rule="evenodd" clip-rule="evenodd" d="M42.5438 25.5529L43.5955 26.6031C45.4679 28.477 45.4679 31.5241 43.597 33.398L42.5438 34.4483C42.2093 34.7843 42.0157 35.2494 42.0157 35.725V37.2118C42.0157 39.8614 39.8598 42.0159 37.2103 42.0159H35.725C35.2434 42.0159 34.7903 42.2034 34.4483 42.5455L33.3981 43.5957C32.4604 44.5319 31.2301 45 29.9999 45C28.7697 45 27.5394 44.5334 26.6017 43.5957L25.5515 42.5455C25.2095 42.2034 24.7564 42.0159 24.2748 42.0159H22.7895C20.14 42.0159 17.9841 39.8614 17.9841 37.2118V35.725C17.9841 35.2494 17.7905 34.7843 17.456 34.4483L16.4043 33.398C14.5319 31.5241 14.5319 28.477 16.4043 26.6031L17.456 25.5529C17.7905 25.2168 17.9841 24.7502 17.9841 24.2761V22.7893C17.9841 20.1397 20.14 17.9853 22.7895 17.9853H24.2748C24.7564 17.9853 25.2095 17.7977 25.5515 17.4556L26.6017 16.4054C28.4756 14.533 31.5242 14.53 33.3981 16.4054L34.4483 17.4556C34.7903 17.7977 35.2434 17.9853 35.725 17.9853H37.2103C39.8598 17.9853 42.0157 20.1397 42.0157 22.7893V24.2761C42.0157 24.7502 42.2093 25.2168 42.5438 25.5529ZM40.4224 32.3268L41.4741 31.2766C42.1778 30.5729 42.1778 29.4282 41.4741 28.7245L40.4224 27.6743C39.5147 26.7666 39.0152 25.5589 39.0152 24.2761V22.7893C39.0152 21.7946 38.2065 20.9859 37.2103 20.9859H35.725C34.4423 20.9859 33.2345 20.4863 32.3269 19.5771L31.2767 18.5269C30.573 17.8232 29.4268 17.8232 28.7232 18.5269L27.673 19.5771C26.7653 20.4863 25.559 20.9859 24.2748 20.9859H22.7895C21.7933 20.9859 20.9847 21.7946 20.9847 22.7893V24.2761C20.9847 25.5589 20.4851 26.7666 19.5774 27.6743L18.5257 28.7245C17.822 29.4282 17.822 30.5729 18.5272 31.2766L19.5774 32.3268C20.4851 33.2345 20.9847 34.4408 20.9847 35.725V37.2118C20.9847 38.2066 21.7933 39.0152 22.7895 39.0152H24.2748C25.559 39.0152 26.7653 39.5148 27.673 40.424L28.7232 41.4743C29.4268 42.1779 30.573 42.1779 31.2767 41.4743L32.3269 40.424C33.2345 39.5148 34.4423 39.0152 35.725 39.0152H37.2103C38.2065 39.0152 39.0152 38.2066 39.0152 37.2118V35.725C39.0152 34.4408 39.5147 33.2345 40.4224 32.3268ZM31.9428 26.5645C30.9421 25.5622 30.0074 25.5037 29.9684 25.5022C29.1762 25.5022 28.5026 26.1759 28.5026 27.0026C28.5026 27.9718 28.6947 28.1293 30.3675 28.5479C31.9143 28.935 34.5038 29.5831 34.5038 33.0038C34.5038 34.9572 33.2465 36.6076 31.5032 37.2287V37.5048C31.5032 38.3345 30.8326 39.0051 30.0029 39.0051C29.1747 39.0051 28.5026 38.3345 28.5026 37.5048V37.2047C27.7645 36.9482 26.8478 36.4711 25.9416 35.5664C25.3565 34.9797 25.3565 34.03 25.9416 33.4434C26.5282 32.8583 27.4779 32.8583 28.063 33.4434C29.0637 34.4456 29.9999 34.5041 30.0389 34.5056C30.8311 34.5041 31.5032 33.832 31.5032 33.0038C31.5032 32.0361 31.3127 31.8786 29.6398 31.46L29.6395 31.4599C28.0927 31.0728 25.502 30.4245 25.502 27.0026C25.502 25.0506 26.7608 23.4003 28.5026 22.7792V22.5016C28.5026 21.6734 29.1747 21.0013 30.0029 21.0013C30.8326 21.0013 31.5032 21.6734 31.5032 22.5016V22.8032C32.2428 23.0597 33.1595 23.5368 34.0642 24.4415C34.6508 25.0281 34.6508 25.9778 34.0642 26.5645C33.4791 27.1496 32.5294 27.1496 31.9428 26.5645Z" fill="#405ADD"/>
</svg>
