<svg width="16" height="20" viewBox="0 0 16 20" fill="none" xmlns="http://www.w3.org/2000/svg">
<path fill-rule="evenodd" clip-rule="evenodd" d="M11.707 0.293002L15.707 4.293C15.8949 4.48024 16.0004 4.73472 16 5V19C16 19.5523 15.5523 20 15 20H1C0.447715 20 0 19.5523 0 19V1C0 0.447717 0.447715 2.0925e-06 1 2.0925e-06H11C11.2653 -0.000382665 11.5198 0.105079 11.707 0.293002ZM2 18H14V5.414L10.586 2H2V18ZM7.293 5.043L4.293 8.043C4.04041 8.29559 3.94177 8.66374 4.03422 9.00878C4.12667 9.35382 4.39618 9.62333 4.74122 9.71578C5.08626 9.80823 5.45441 9.70959 5.707 9.457L7 8.164V11.75C7 12.3023 7.44771 12.75 8 12.75C8.55228 12.75 9 12.3023 9 11.75V8.164L10.293 9.457C10.4801 9.64521 10.7346 9.75104 11 9.75104C11.2654 9.75104 11.5199 9.64521 11.707 9.457C11.8947 9.2696 12.0002 9.01525 12.0002 8.75C12.0002 8.48476 11.8947 8.2304 11.707 8.043L8.707 5.043C8.5196 4.85529 8.26524 4.7498 8 4.7498C7.73475 4.7498 7.4804 4.85529 7.293 5.043ZM4.6875 13.75C4.16973 13.75 3.75 14.1697 3.75 14.6875C3.75 15.2053 4.16973 15.625 4.6875 15.625H11.4375C11.9553 15.625 12.375 15.2053 12.375 14.6875C12.375 14.1697 11.9553 13.75 11.4375 13.75H4.6875Z" fill="#405ADD"/>
</svg>
