<svg width="20" height="20" viewBox="0 0 20 20" fill="none" xmlns="http://www.w3.org/2000/svg">
<path fill-rule="evenodd" clip-rule="evenodd" d="M19 0H1C0.447715 0 0 0.447715 0 1V19C0 19.5523 0.447715 20 1 20H19C19.5523 20 20 19.5523 20 19V1C20 0.447715 19.5523 0 19 0ZM8 6C8.551 6 9 6.449 9 7C9 7.551 8.551 8 8 8C7.449 8 7 7.551 7 7C7 6.449 7.449 6 8 6ZM8 10C9.654 10 11 8.654 11 7C11 5.346 9.654 4 8 4C6.346 4 5 5.346 5 7C5 8.654 6.346 10 8 10ZM2 18V15.566L5.972 13.183L8.445 14.832C8.84168 15.0965 9.36992 15.0442 9.707 14.707L14.074 10.34L18 13.48V18H2ZM18 2V10.919L14.625 8.219C14.227 7.90063 13.6533 7.93251 13.293 8.293L8.873 12.713L6.555 11.168C6.23318 10.9534 5.81649 10.9437 5.485 11.143L2 13.234V2H18Z" fill="#405ADD"/>
</svg>
