<svg width="201" height="24" viewBox="0 0 201 24" fill="none" xmlns="http://www.w3.org/2000/svg">
<path fill-rule="evenodd" clip-rule="evenodd" d="M19.9901 9.60768V11.8987V13.7441C19.9901 19.2642 15.5152 23.7391 9.99504 23.7391C4.47493 23.7391 0 19.2642 0 13.7441V11.8987V9.8725C0 8.06998 1.46123 6.60876 3.26374 6.60876C5.0663 6.60876 6.52754 8.07005 6.52748 9.87261L6.52737 12.9194V13.7388C6.52737 15.6539 8.0799 17.2065 9.99504 17.2065C11.6868 17.2065 13.0956 15.995 13.4012 14.3923V12.1013V10.2559C13.4012 4.7358 17.8762 0.260864 23.3963 0.260864C28.9164 0.260864 33.3913 4.7358 33.3913 10.2559V12.1013V14.1274C33.3913 15.9299 31.93 17.3912 30.1274 17.3912C28.3247 17.3912 26.8633 15.9297 26.8635 14.1269L26.8639 11.0806V10.2612C26.8639 8.34606 25.3114 6.79353 23.3963 6.79353C21.7045 6.79353 20.2957 8.00498 19.9901 9.60768Z" fill="#647BF0"/>
<path fill-rule="evenodd" clip-rule="evenodd" d="M112.53 5.63969C112.927 5.63969 113.308 5.56658 113.673 5.42037C114.038 5.27415 114.351 5.07572 114.612 4.82507C114.872 4.57441 115.081 4.27676 115.238 3.93211C115.394 3.58747 115.472 3.21671 115.472 2.81984C115.472 2.42298 115.394 2.05222 115.238 1.70757C115.081 1.36292 114.872 1.06527 114.612 0.814621C114.351 0.563969 114.038 0.365535 113.673 0.219321C113.308 0.073107 112.927 0 112.53 0C112.113 0 111.727 0.078329 111.373 0.234987C111.018 0.391645 110.705 0.5953 110.434 0.845953C110.162 1.09661 109.954 1.39426 109.808 1.7389C109.662 2.08355 109.589 2.44386 109.589 2.81984C109.589 3.59269 109.87 4.25587 110.434 4.8094C110.997 5.36292 111.696 5.63969 112.53 5.63969ZM50.0109 24C51.8887 24 53.5474 23.671 54.987 23.0131C56.4266 22.3551 57.6367 21.4621 58.6174 20.3342L54.8931 16.8251C54.4132 17.4935 53.7769 18.0366 52.984 18.4543C52.1912 18.8721 51.2627 19.0809 50.1987 19.0809C49.2806 19.0809 48.4356 18.9138 47.6636 18.5796C46.8917 18.2454 46.2292 17.7807 45.6763 17.1854C45.1234 16.5901 44.6905 15.8747 44.3775 15.0392C44.0646 14.2037 43.9081 13.2846 43.9081 12.282C43.9081 11.3003 44.0646 10.3969 44.3775 9.5718C44.6905 8.74674 45.1286 8.03133 45.692 7.42559C46.2553 6.81984 46.9282 6.34465 47.7106 6C48.493 5.65535 49.3537 5.48303 50.2925 5.48303C51.148 5.48303 51.9825 5.65013 52.7962 5.98433C53.61 6.31854 54.2672 6.83029 54.7679 7.51958L58.3983 3.88512C57.4594 2.81984 56.2336 2.01044 54.721 1.45692C53.2083 0.903394 51.6696 0.626632 50.1048 0.626632C48.4148 0.626632 46.8395 0.898172 45.379 1.44125C43.9185 1.98433 42.6458 2.7624 41.5609 3.77546C40.4759 4.78851 39.6257 6.01567 39.0102 7.45692C38.3947 8.89817 38.087 10.5065 38.087 12.282C38.087 14.0157 38.3895 15.6031 38.9946 17.0444C39.5996 18.4856 40.4342 19.7232 41.4983 20.7572C42.5623 21.7911 43.8194 22.5901 45.2695 23.154C46.7195 23.718 48.3 24 50.0109 24ZM67.8393 23.906C69.0286 23.906 70.1448 23.7076 71.1881 23.3107C72.2313 22.9138 73.1493 22.3551 73.9421 21.6345C74.735 20.9138 75.3609 20.0366 75.8199 19.0026C76.2789 17.9687 76.5084 16.8146 76.5084 15.5405C76.5084 14.2663 76.2789 13.1175 75.8199 12.094C75.3609 11.0705 74.735 10.2037 73.9421 9.49347C73.1493 8.78329 72.2313 8.24021 71.1881 7.86423C70.1448 7.48825 69.0286 7.30026 67.8393 7.30026C66.6709 7.30026 65.5599 7.48825 64.5063 7.86423C63.4526 8.24021 62.5346 8.78329 61.7522 9.49347C60.9698 10.2037 60.3491 11.0705 59.8901 12.094C59.4311 13.1175 59.2016 14.2663 59.2016 15.5405C59.2016 16.8146 59.4311 17.9687 59.8901 19.0026C60.3491 20.0366 60.9698 20.9138 61.7522 21.6345C62.5346 22.3551 63.4526 22.9138 64.5063 23.3107C65.5599 23.7076 66.6709 23.906 67.8393 23.906ZM66.2745 19.2376C66.7335 19.4674 67.2656 19.5822 67.8706 19.5822C68.4757 19.5822 69.0077 19.4674 69.4668 19.2376C69.9258 19.0078 70.3118 18.6997 70.6247 18.3133C70.9377 17.9269 71.1724 17.4935 71.3289 17.0131C71.4854 16.5326 71.5636 16.0418 71.5636 15.5405C71.5636 15.0392 71.4802 14.5483 71.3132 14.0679C71.1463 13.5875 70.9064 13.1645 70.5934 12.799C70.2805 12.4334 69.8945 12.1358 69.4355 11.906C68.9764 11.6762 68.4444 11.5614 67.8393 11.5614C67.2343 11.5614 66.7022 11.6762 66.2432 11.906C65.7842 12.1358 65.4035 12.4334 65.1009 12.799C64.7984 13.1645 64.5689 13.5875 64.4124 14.0679C64.2559 14.5483 64.1777 15.0392 64.1777 15.5405C64.1777 16.0418 64.2559 16.5326 64.4124 17.0131C64.5689 17.4935 64.8036 17.9269 65.1166 18.3133C65.4295 18.6997 65.8155 19.0078 66.2745 19.2376ZM84.6663 23.4047V14.9452C84.6663 14.5065 84.7237 14.0836 84.8385 13.6762C84.9532 13.2689 85.1253 12.9086 85.3549 12.5953C85.5844 12.282 85.8712 12.0366 86.2155 11.859C86.5598 11.6815 86.9614 11.5927 87.4204 11.5927C87.8794 11.5927 88.2602 11.6815 88.5627 11.859C88.8653 12.0366 89.1 12.2768 89.2669 12.5796C89.4338 12.8825 89.5538 13.2324 89.6268 13.6292C89.6998 14.0261 89.7363 14.4439 89.7363 14.8825V23.4047H94.9002V13.7546C94.9002 12.9817 94.8011 12.2089 94.6029 11.436C94.4047 10.6632 94.0813 9.97911 93.6327 9.38381C93.1842 8.78851 92.5947 8.30287 91.8645 7.92689C91.1342 7.55091 90.2475 7.36292 89.2043 7.36292C88.6618 7.36292 88.1507 7.43603 87.6708 7.58225C87.1909 7.72846 86.7475 7.91645 86.3407 8.14621C85.9338 8.37598 85.5791 8.65274 85.2766 8.9765C84.9741 9.30026 84.7289 9.62924 84.5411 9.96345H84.4786V7.80157H79.5024V23.4047H84.6663ZM106.25 23.6397C105.708 23.7337 105.165 23.7807 104.623 23.7807C103.58 23.7807 102.703 23.6501 101.994 23.389C101.285 23.1279 100.716 22.752 100.288 22.2611C99.8607 21.7702 99.553 21.1854 99.3652 20.5065C99.1774 19.8277 99.0835 19.0705 99.0835 18.235V11.6554H96.5798V7.80157H99.0522V3.69713H104.091V7.80157H107.753V11.6554H104.091V17.6084C104.091 18.3394 104.232 18.8877 104.513 19.2533C104.795 19.6188 105.301 19.8016 106.031 19.8016C106.282 19.8016 106.548 19.7807 106.829 19.7389C107.111 19.6971 107.346 19.6345 107.534 19.5509L107.596 23.3107C107.241 23.436 106.793 23.5457 106.25 23.6397ZM115.097 7.80157V23.4047H109.964V7.80157H115.097ZM124.068 23.4047V14.9452C124.068 14.5065 124.126 14.0836 124.241 13.6762C124.355 13.2689 124.527 12.9086 124.757 12.5953C124.986 12.282 125.273 12.0366 125.618 11.859C125.962 11.6815 126.363 11.5927 126.822 11.5927C127.281 11.5927 127.662 11.6815 127.965 11.859C128.267 12.0366 128.502 12.2768 128.669 12.5796C128.836 12.8825 128.956 13.2324 129.029 13.6292C129.102 14.0261 129.138 14.4439 129.138 14.8825V23.4047H134.302V13.7546C134.302 12.9817 134.203 12.2089 134.005 11.436C133.807 10.6632 133.483 9.97911 133.035 9.38381C132.586 8.78851 131.997 8.30287 131.267 7.92689C130.536 7.55091 129.65 7.36292 128.606 7.36292C128.064 7.36292 127.553 7.43603 127.073 7.58225C126.593 7.72846 126.15 7.91645 125.743 8.14621C125.336 8.37598 124.981 8.65274 124.679 8.9765C124.376 9.30026 124.131 9.62924 123.943 9.96345H123.881V7.80157H118.905V23.4047H124.068ZM144.98 23.624C144.489 23.7702 143.973 23.8433 143.43 23.8433C142.387 23.8433 141.506 23.6554 140.786 23.2794C140.066 22.9034 139.482 22.4178 139.033 21.8225C138.585 21.2272 138.261 20.5483 138.063 19.7859C137.865 19.0235 137.766 18.2454 137.766 17.4517V7.80157H142.93V16.2611C142.93 16.6997 142.961 17.1175 143.024 17.5144C143.086 17.9112 143.206 18.2663 143.383 18.5796C143.561 18.893 143.796 19.1384 144.088 19.3159C144.38 19.4935 144.766 19.5822 145.246 19.5822C146.143 19.5822 146.826 19.248 147.295 18.5796C147.765 17.9112 148 17.1279 148 16.2298V7.80157H153.132V23.4047H148.187V21.2428H148.125C147.937 21.5979 147.692 21.9321 147.389 22.2454C147.087 22.5587 146.732 22.8303 146.325 23.0601C145.918 23.2898 145.47 23.4778 144.98 23.624ZM162.386 23.8433C162.928 23.8433 163.444 23.7702 163.935 23.624C164.425 23.4778 164.874 23.2898 165.28 23.0601C165.687 22.8303 166.042 22.5587 166.345 22.2454C166.647 21.9321 166.892 21.5979 167.08 21.2428H167.143V23.4047H172.087V7.80157H166.955V16.2298C166.955 17.1279 166.72 17.9112 166.251 18.5796C165.781 19.248 165.098 19.5822 164.201 19.5822C163.721 19.5822 163.335 19.4935 163.043 19.3159C162.751 19.1384 162.516 18.893 162.339 18.5796C162.161 18.2663 162.041 17.9112 161.979 17.5144C161.916 17.1175 161.885 16.6997 161.885 16.2611V7.80157H156.721V17.4517C156.721 18.2454 156.82 19.0235 157.018 19.7859C157.216 20.5483 157.54 21.2272 157.988 21.8225C158.437 22.4178 159.021 22.9034 159.741 23.2794C160.461 23.6554 161.342 23.8433 162.386 23.8433ZM180.996 14.9452V23.4047H175.833V7.80157H180.809V9.96345H180.871C181.059 9.62924 181.294 9.30548 181.575 8.99217C181.857 8.67885 182.196 8.40209 182.593 8.16188C182.989 7.92167 183.432 7.72846 183.923 7.58225C184.413 7.43603 184.95 7.36292 185.534 7.36292C186.661 7.36292 187.616 7.59269 188.398 8.05222C189.18 8.51175 189.791 9.16971 190.229 10.0261C190.75 9.21149 191.418 8.56397 192.232 8.08355C193.046 7.60313 194.037 7.36292 195.205 7.36292C196.269 7.36292 197.161 7.55614 197.881 7.94256C198.601 8.32898 199.18 8.83029 199.618 9.44648C200.056 10.0627 200.374 10.752 200.572 11.5144C200.77 12.2768 200.87 13.0235 200.87 13.7546V23.4047H195.737V14.8825C195.737 14.4439 195.706 14.0209 195.643 13.6136C195.581 13.2063 195.466 12.8564 195.299 12.564C195.132 12.2715 194.908 12.0366 194.626 11.859C194.344 11.6815 193.974 11.5927 193.515 11.5927C193.077 11.5927 192.696 11.6867 192.373 11.8747C192.049 12.0627 191.778 12.3133 191.559 12.6266C191.34 12.9399 191.178 13.3003 191.074 13.7076C190.97 14.1149 190.917 14.5379 190.917 14.9765V23.4047H185.785V14.5065C185.785 13.6084 185.607 12.8982 185.253 12.376C184.898 11.8538 184.335 11.5927 183.563 11.5927C182.749 11.5927 182.118 11.9164 181.669 12.564C181.221 13.2115 180.996 14.0052 180.996 14.9452Z" fill="white"/>
</svg>
