<svg width="16" height="12" viewBox="0 0 16 12" fill="none" xmlns="http://www.w3.org/2000/svg">
<path fill-rule="evenodd" clip-rule="evenodd" d="M15.0002 4.99987H3.4142L6.7072 1.70687C6.95979 1.45428 7.05843 1.08613 6.96598 0.741092C6.87353 0.396052 6.60402 0.126545 6.25898 0.0340918C5.91394 -0.0583614 5.54579 0.040285 5.2932 0.292872L0.293201 5.29287C0.105485 5.48027 0 5.73463 0 5.99987C0 6.26512 0.105485 6.51947 0.293201 6.70687L5.2932 11.7069C5.48034 11.8951 5.73479 12.0009 6.0002 12.0009C6.26561 12.0009 6.52007 11.8951 6.7072 11.7069C6.89492 11.5195 7.0004 11.2651 7.0004 10.9999C7.0004 10.7346 6.89492 10.4803 6.7072 10.2929L3.4142 6.99987H15.0002C15.5525 6.99987 16.0002 6.55216 16.0002 5.99987C16.0002 5.44759 15.5525 4.99987 15.0002 4.99987Z" fill="#7171A6"/>
</svg>
