<svg width="16" height="12" viewBox="0 0 16 12" fill="none" xmlns="http://www.w3.org/2000/svg">
<path fill-rule="evenodd" clip-rule="evenodd" d="M15.707 5.29287L10.707 0.292872C10.4544 0.040285 10.0863 -0.0583614 9.74122 0.0340918C9.39618 0.126545 9.12667 0.396052 9.03422 0.741092C8.94177 1.08613 9.04041 1.45428 9.293 1.70687L12.586 4.99987H1C0.447715 4.99987 0 5.44759 0 5.99987C0 6.55216 0.447715 6.99987 1 6.99987H12.586L9.293 10.2929C8.90253 10.6833 8.90253 11.3164 9.293 11.7069C9.68347 12.0973 10.3165 12.0973 10.707 11.7069L15.707 6.70687C15.8947 6.51947 16.0002 6.26512 16.0002 5.99987C16.0002 5.73463 15.8947 5.48027 15.707 5.29287Z" fill="#7171A6"/>
</svg>
