<svg width="20" height="20" viewBox="0 0 20 20" fill="none" xmlns="http://www.w3.org/2000/svg">
<path fill-rule="evenodd" clip-rule="evenodd" d="M14.312 12.897L19.707 18.293C19.8947 18.4804 20.0002 18.7348 20.0002 19C20.0002 19.2652 19.8947 19.5196 19.707 19.707C19.5199 19.8952 19.2654 20.001 19 20.001C18.7346 20.001 18.4801 19.8952 18.293 19.707L12.897 14.312C11.4987 15.4053 9.77495 15.9995 8 16C3.589 16 0 12.411 0 8C0 3.589 3.589 0 8 0C12.411 0 16 3.589 16 8C16.0001 9.77505 15.4058 11.499 14.312 12.897ZM8 2C4.691 2 2 4.691 2 8C2 11.309 4.691 14 8 14C11.309 14 14 11.309 14 8C14 4.691 11.309 2 8 2Z" fill="#DFE0E2"/>
</svg>
