<svg width="23" height="24" viewBox="0 0 23 24" fill="none" xmlns="http://www.w3.org/2000/svg">
<path opacity="0.75" fill-rule="evenodd" clip-rule="evenodd" d="M20.3696 12C20.3696 12.396 20.3341 12.78 20.2868 13.164L22.7814 15.156C23.006 15.336 23.0651 15.66 22.9233 15.924L20.5587 20.076C20.4169 20.34 20.0977 20.436 19.8376 20.34L16.8937 19.128C16.2789 19.608 15.6405 20.004 14.8957 20.316L14.4583 23.496C14.411 23.784 14.1627 24 13.8671 24H9.13809C8.84252 24 8.59425 23.784 8.54696 23.496L8.10952 20.316C7.3647 20.016 6.72628 19.608 6.1115 19.128L3.16767 20.34C2.90757 20.436 2.58836 20.34 2.44649 20.076L0.0819681 15.924C-0.0717259 15.66 -0.000790209 15.336 0.223839 15.156L2.71841 13.164C2.67112 12.78 2.63565 12.396 2.63565 12C2.63565 11.604 2.67112 11.208 2.71841 10.8L0.223839 8.844C-0.000790209 8.664 -0.0717259 8.34 0.0819681 8.076L2.44649 3.924C2.58836 3.66 2.90757 3.552 3.16767 3.66L6.1115 4.86C6.72628 4.392 7.3647 3.984 8.10952 3.684L8.54696 0.504C8.59425 0.216 8.84252 0 9.13809 0H13.8671C14.1627 0 14.411 0.216 14.4583 0.504L14.8957 3.684C15.6405 3.984 16.2789 4.392 16.8937 4.86L19.8376 3.66C20.0977 3.552 20.4169 3.66 20.5587 3.924L22.9233 8.076C23.0651 8.34 23.006 8.664 22.7814 8.844L20.2868 10.8C20.3341 11.208 20.3696 11.604 20.3696 12ZM7.3647 12C7.3647 14.3196 9.2173 16.2 11.5026 16.2C13.7879 16.2 15.6405 14.3196 15.6405 12C15.6405 9.6804 13.7879 7.8 11.5026 7.8C9.2173 7.8 7.3647 9.6804 7.3647 12Z" fill="#405ADD"/>
</svg>
