<svg width="168" height="20" viewBox="0 0 168 20" fill="none" xmlns="http://www.w3.org/2000/svg">
<path fill-rule="evenodd" clip-rule="evenodd" d="M16.6584 8.00639V9.91555V11.4534C16.6584 16.0535 12.9293 19.7826 8.3292 19.7826C3.72911 19.7826 0 16.0535 0 11.4534V9.91555V8.22707C0 6.72498 1.21769 5.50729 2.71978 5.50729C4.22192 5.50729 5.43962 6.72503 5.43957 8.22717L5.43948 10.7662V11.449C5.43948 13.0449 6.73325 14.3387 8.3292 14.3387C9.73898 14.3387 10.913 13.3292 11.1677 11.9936V10.0844V8.54658C11.1677 3.94649 14.8968 0.217377 19.4969 0.217377C24.097 0.217377 27.8261 3.94649 27.8261 8.54658V10.0844V11.7728C27.8261 13.2749 26.6083 14.4927 25.1062 14.4927C23.6039 14.4927 22.3861 13.2747 22.3863 11.7724L22.3866 9.23382V8.55099C22.3866 6.95504 21.0928 5.66127 19.4969 5.66127C18.0871 5.66127 16.9131 6.6708 16.6584 8.00639Z" fill="#647BF0"/>
<path fill-rule="evenodd" clip-rule="evenodd" d="M93.7754 4.69974C94.1058 4.69974 94.4231 4.63882 94.7273 4.51697C95.0316 4.39513 95.2924 4.22976 95.5097 4.02089C95.7271 3.81201 95.9009 3.56397 96.0313 3.27676C96.1617 2.98956 96.2269 2.68059 96.2269 2.34987C96.2269 2.01915 96.1617 1.71018 96.0313 1.42298C95.9009 1.13577 95.7271 0.887728 95.5097 0.678851C95.2924 0.469974 95.0316 0.304613 94.7273 0.182768C94.4231 0.0609225 94.1058 0 93.7754 0C93.4277 0 93.106 0.0652741 92.8104 0.195822C92.5149 0.326371 92.2541 0.496084 92.028 0.704961C91.802 0.913838 91.6281 1.16188 91.5064 1.44909C91.3847 1.73629 91.3239 2.03655 91.3239 2.34987C91.3239 2.99391 91.5586 3.54656 92.028 4.00783C92.4975 4.4691 93.0799 4.69974 93.7754 4.69974ZM41.6757 20C43.2405 20 44.6228 19.7258 45.8225 19.1775C47.0222 18.6292 48.0306 17.8851 48.8478 16.9452L45.7442 14.0209C45.3443 14.5779 44.814 15.0305 44.1533 15.3786C43.4926 15.7267 42.7189 15.9008 41.8322 15.9008C41.0672 15.9008 40.363 15.7615 39.7197 15.483C39.0764 15.2045 38.5244 14.8172 38.0636 14.3211C37.6028 13.8251 37.2421 13.2289 36.9813 12.5326C36.7205 11.8364 36.5901 11.0705 36.5901 10.235C36.5901 9.41688 36.7205 8.66406 36.9813 7.9765C37.2421 7.28895 37.6072 6.69278 38.0766 6.18799C38.5461 5.6832 39.1068 5.28721 39.7588 5C40.4108 4.71279 41.128 4.56919 41.9104 4.56919C42.6233 4.56919 43.3188 4.70844 43.9969 4.98695C44.6749 5.26545 45.2226 5.69191 45.6399 6.26632L48.6652 3.2376C47.8828 2.34987 46.8613 1.67537 45.6008 1.2141C44.3403 0.752829 43.058 0.522193 41.754 0.522193C40.3456 0.522193 39.0329 0.748477 37.8158 1.20104C36.5988 1.65361 35.5382 2.302 34.634 3.14621C33.7299 3.99043 33.0214 5.01305 32.5085 6.2141C31.9956 7.41514 31.7391 8.75544 31.7391 10.235C31.7391 11.6797 31.9912 13.0026 32.4955 14.2037C32.9997 15.4047 33.6952 16.436 34.5819 17.2977C35.4686 18.1593 36.5162 18.8251 37.7246 19.295C38.9329 19.765 40.25 20 41.6757 20ZM56.5328 19.9217C57.5238 19.9217 58.454 19.7563 59.3234 19.4256C60.1927 19.0949 60.9577 18.6292 61.6184 18.0287C62.2791 17.4282 62.8007 16.6971 63.1832 15.8355C63.5658 14.9739 63.757 14.0122 63.757 12.9504C63.757 11.8886 63.5658 10.9312 63.1832 10.0783C62.8007 9.22541 62.2791 8.50305 61.6184 7.91123C60.9577 7.31941 60.1927 6.86684 59.3234 6.55352C58.454 6.24021 57.5238 6.08355 56.5328 6.08355C55.5591 6.08355 54.6333 6.24021 53.7552 6.55352C52.8772 6.86684 52.1122 7.31941 51.4602 7.91123C50.8082 8.50305 50.2909 9.22541 49.9084 10.0783C49.5259 10.9312 49.3346 11.8886 49.3346 12.9504C49.3346 14.0122 49.5259 14.9739 49.9084 15.8355C50.2909 16.6971 50.8082 17.4282 51.4602 18.0287C52.1122 18.6292 52.8772 19.0949 53.7552 19.4256C54.6333 19.7563 55.5591 19.9217 56.5328 19.9217ZM55.2288 16.0313C55.6113 16.2228 56.0546 16.3185 56.5589 16.3185C57.0631 16.3185 57.5064 16.2228 57.889 16.0313C58.2715 15.8399 58.5931 15.5831 58.8539 15.2611C59.1147 14.9391 59.3103 14.5779 59.4407 14.1775C59.5711 13.7772 59.6363 13.3681 59.6363 12.9504C59.6363 12.5326 59.5668 12.1236 59.4277 11.7232C59.2886 11.3229 59.0886 10.9704 58.8278 10.6658C58.567 10.3612 58.2454 10.1131 57.8629 9.92167C57.4804 9.7302 57.037 9.63447 56.5328 9.63447C56.0286 9.63447 55.5852 9.7302 55.2027 9.92167C54.8202 10.1131 54.5029 10.3612 54.2508 10.6658C53.9986 10.9704 53.8074 11.3229 53.677 11.7232C53.5466 12.1236 53.4814 12.5326 53.4814 12.9504C53.4814 13.3681 53.5466 13.7772 53.677 14.1775C53.8074 14.5779 54.003 14.9391 54.2638 15.2611C54.5246 15.5831 54.8463 15.8399 55.2288 16.0313ZM70.5553 19.5039V12.4543C70.5553 12.0888 70.6031 11.7363 70.6987 11.3969C70.7943 11.0574 70.9378 10.7572 71.129 10.4961C71.3203 10.235 71.5594 10.0305 71.8462 9.88251C72.1331 9.73455 72.4678 9.66057 72.8503 9.66057C73.2328 9.66057 73.5502 9.73455 73.8023 9.88251C74.0544 10.0305 74.25 10.2306 74.3891 10.483C74.5282 10.7354 74.6281 11.027 74.689 11.3577C74.7498 11.6884 74.7803 12.0366 74.7803 12.4021V19.5039H79.0835V11.4621C79.0835 10.8181 79.0009 10.1741 78.8358 9.53003C78.6706 8.88599 78.4011 8.31593 78.0273 7.81984C77.6535 7.32376 77.1623 6.91906 76.5537 6.60574C75.9452 6.29243 75.2063 6.13577 74.3369 6.13577C73.8848 6.13577 73.4589 6.19669 73.059 6.31854C72.6591 6.44038 72.2896 6.59704 71.9506 6.78851C71.6115 6.97998 71.3159 7.21062 71.0638 7.48042C70.8117 7.75022 70.6074 8.02437 70.451 8.30287H70.3988V6.50131H66.252V19.5039H70.5553ZM88.542 19.6997C88.0899 19.7781 87.6378 19.8172 87.1858 19.8172C86.3164 19.8172 85.5862 19.7084 84.995 19.4909C84.4039 19.2733 83.9301 18.96 83.5737 18.5509C83.2172 18.1419 82.9608 17.6545 82.8043 17.0888C82.6478 16.5231 82.5696 15.8921 82.5696 15.1958V9.71279H80.4832V6.50131H82.5435V3.08094H86.7424V6.50131H89.7938V9.71279H86.7424V14.6736C86.7424 15.2829 86.8598 15.7398 87.0945 16.0444C87.3292 16.349 87.7509 16.5013 88.3594 16.5013C88.568 16.5013 88.7897 16.4839 89.0244 16.4491C89.2592 16.4143 89.4548 16.3621 89.6113 16.2924L89.6634 19.4256C89.3678 19.53 88.994 19.6214 88.542 19.6997ZM95.914 6.50131V19.5039H91.6368V6.50131H95.914ZM103.39 19.5039V12.4543C103.39 12.0888 103.438 11.7363 103.534 11.3969C103.629 11.0574 103.773 10.7572 103.964 10.4961C104.155 10.235 104.394 10.0305 104.681 9.88251C104.968 9.73455 105.303 9.66057 105.685 9.66057C106.068 9.66057 106.385 9.73455 106.637 9.88251C106.889 10.0305 107.085 10.2306 107.224 10.483C107.363 10.7354 107.463 11.027 107.524 11.3577C107.585 11.6884 107.615 12.0366 107.615 12.4021V19.5039H111.919V11.4621C111.919 10.8181 111.836 10.1741 111.671 9.53003C111.506 8.88599 111.236 8.31593 110.862 7.81984C110.489 7.32376 109.997 6.91906 109.389 6.60574C108.78 6.29243 108.041 6.13577 107.172 6.13577C106.72 6.13577 106.294 6.19669 105.894 6.31854C105.494 6.44038 105.125 6.59704 104.786 6.78851C104.447 6.97998 104.151 7.21062 103.899 7.48042C103.647 7.75022 103.442 8.02437 103.286 8.30287H103.234V6.50131H99.0871V19.5039H103.39ZM120.816 19.6867C120.408 19.8085 119.977 19.8695 119.525 19.8695C118.656 19.8695 117.921 19.7128 117.322 19.3995C116.722 19.0862 116.235 18.6815 115.861 18.1854C115.487 17.6893 115.218 17.1236 115.053 16.4883C114.887 15.8529 114.805 15.2045 114.805 14.5431V6.50131H119.108V13.5509C119.108 13.9164 119.134 14.2646 119.186 14.5953C119.238 14.926 119.338 15.2219 119.486 15.483C119.634 15.7441 119.83 15.9487 120.073 16.0966C120.316 16.2446 120.638 16.3185 121.038 16.3185C121.786 16.3185 122.355 16.04 122.746 15.483C123.137 14.926 123.333 14.2733 123.333 13.5248V6.50131H127.61V19.5039H123.49V17.7024H123.437C123.281 17.9983 123.077 18.2768 122.824 18.5379C122.572 18.799 122.277 19.0252 121.938 19.2167C121.599 19.4082 121.225 19.5648 120.816 19.6867ZM135.321 19.8695C135.773 19.8695 136.204 19.8085 136.612 19.6867C137.021 19.5648 137.395 19.4082 137.734 19.2167C138.073 19.0252 138.368 18.799 138.62 18.5379C138.873 18.2768 139.077 17.9983 139.233 17.7024H139.285V19.5039H143.406V6.50131H139.129V13.5248C139.129 14.2733 138.933 14.926 138.542 15.483C138.151 16.04 137.582 16.3185 136.834 16.3185C136.434 16.3185 136.112 16.2446 135.869 16.0966C135.626 15.9487 135.43 15.7441 135.282 15.483C135.134 15.2219 135.034 14.926 134.982 14.5953C134.93 14.2646 134.904 13.9164 134.904 13.5509V6.50131H130.601V14.5431C130.601 15.2045 130.683 15.8529 130.849 16.4883C131.014 17.1236 131.283 17.6893 131.657 18.1854C132.031 18.6815 132.518 19.0862 133.117 19.3995C133.717 19.7128 134.452 19.8695 135.321 19.8695ZM150.83 12.4543V19.5039H146.527V6.50131H150.674V8.30287H150.726C150.882 8.02437 151.078 7.75457 151.313 7.49347C151.548 7.23238 151.83 7.00174 152.16 6.80157C152.491 6.60139 152.86 6.44038 153.269 6.31854C153.677 6.19669 154.125 6.13577 154.612 6.13577C155.551 6.13577 156.346 6.32724 156.998 6.71018C157.65 7.09312 158.159 7.64143 158.524 8.35509C158.959 7.67624 159.515 7.13664 160.193 6.73629C160.871 6.33594 161.697 6.13577 162.671 6.13577C163.558 6.13577 164.301 6.29678 164.901 6.6188C165.5 6.94082 165.983 7.35857 166.348 7.87206C166.713 8.38555 166.978 8.95997 167.144 9.5953C167.309 10.2306 167.391 10.8529 167.391 11.4621V19.5039H163.114V12.4021C163.114 12.0366 163.088 11.6841 163.036 11.3446C162.984 11.0052 162.888 10.7137 162.749 10.47C162.61 10.2263 162.423 10.0305 162.188 9.88251C161.954 9.73455 161.645 9.66057 161.262 9.66057C160.897 9.66057 160.58 9.7389 160.311 9.89556C160.041 10.0522 159.815 10.2611 159.632 10.5222C159.45 10.7833 159.315 11.0836 159.228 11.423C159.141 11.7624 159.098 12.1149 159.098 12.4804V19.5039H154.821V12.0888C154.821 11.3403 154.673 10.7485 154.377 10.3133C154.082 9.87815 153.612 9.66057 152.969 9.66057C152.291 9.66057 151.765 9.93037 151.391 10.47C151.017 11.0096 150.83 11.671 150.83 12.4543Z" fill="#293340"/>
</svg>
