<svg width="100" height="100" viewBox="0 0 100 100" fill="none" xmlns="http://www.w3.org/2000/svg">
<circle cx="50" cy="50" r="50" fill="#F1EFFC"/>
<path opacity="0.4" fill-rule="evenodd" clip-rule="evenodd" d="M31 49.6878L46.7924 61.1167C48.4061 62.2944 50.5939 62.2944 52.2076 61.1167L68 49.6878V34.0889C68 32.3829 66.6195 31 64.9167 31H34.0833C32.3805 31 31 32.3829 31 34.0889V49.6878ZM40.25 40.2667C40.25 39.4137 40.9402 38.7222 41.7917 38.7222H57.2083C58.0598 38.7222 58.75 39.4137 58.75 40.2667V41.8111C58.75 42.6641 58.0598 43.3556 57.2083 43.3556H41.7917C40.9402 43.3556 40.25 42.6641 40.25 41.8111V40.2667ZM41.7917 46.4445C40.9402 46.4445 40.25 47.1359 40.25 47.9889V49.5334C40.25 50.3863 40.9402 51.0778 41.7917 51.0778H57.2083C58.0598 51.0778 58.75 50.3863 58.75 49.5334V47.9889C58.75 47.1359 58.0598 46.4445 57.2083 46.4445H41.7917Z" fill="#BEB3F3"/>
<path fill-rule="evenodd" clip-rule="evenodd" d="M57.168 29.0432C56.8891 28.8407 56.5634 28.5893 56.2037 28.3118C54.4473 26.9565 51.8805 24.9759 50 25.0002C48.1195 24.9759 45.5527 26.9565 43.7963 28.3118C43.4366 28.5893 43.1109 28.8407 42.832 29.0432L39.8438 31.2502H60.1562L57.168 29.0432ZM57.8125 39.0627C58.6754 39.0627 59.375 39.7622 59.375 40.6252V42.1876C59.375 43.0506 58.6754 43.7501 57.8125 43.7501H42.1875C41.3246 43.7501 40.625 43.0506 40.625 42.1876V40.6252C40.625 39.7622 41.3246 39.0627 42.1875 39.0627H57.8125ZM57.8125 46.8751C58.6754 46.8751 59.375 47.5747 59.375 48.4376V50.0001C59.375 50.8631 58.6754 51.5626 57.8125 51.5626H42.1875C41.3246 51.5626 40.625 50.8631 40.625 50.0001V48.4376C40.625 47.5747 41.3246 46.8751 42.1875 46.8751H57.8125ZM30.7089 37.9985L31.25 37.5978V50.1564L25 45.6447V44.5997C25.0026 43.1619 25.665 41.8048 26.7969 40.9181C27.0578 40.7022 28.6366 39.5331 30.7085 37.9988L30.7087 37.9987L30.7089 37.9985ZM73.2031 40.9181C72.9199 40.6935 71.084 39.3263 68.75 37.6076V50.1564L75 45.6447V44.5997C74.9974 43.1619 74.335 41.8048 73.2031 40.9181ZM45.4199 64.2481C46.7523 65.2127 48.3551 65.7322 50 65.7325C51.6449 65.7322 53.2477 65.2127 54.5801 64.2481L75 49.5021V70.3125C75 72.9013 72.9013 75 70.3125 75H29.6875C27.0987 75 25 72.9013 25 70.3125V49.5021L45.4199 64.2481Z" fill="#BEB3F3"/>
</svg>
