<svg width="16" height="20" viewBox="0 0 16 20" fill="none" xmlns="http://www.w3.org/2000/svg">
<path fill-rule="evenodd" clip-rule="evenodd" d="M15 4H12V2C12 0.897 11.103 0 10 0H6C4.897 0 4 0.897 4 2V4H1C0.447715 4 0 4.44772 0 5C0 5.55228 0.447715 6 1 6V19C1 19.5523 1.44772 20 2 20H14C14.5523 20 15 19.5523 15 19V6C15.5523 6 16 5.55228 16 5C16 4.44772 15.5523 4 15 4ZM3 18H13V6H3V18ZM6 4H10V2H6V4ZM6 16C6.55228 16 7 15.5523 7 15V9C7 8.44771 6.55228 8 6 8C5.44772 8 5 8.44771 5 9V15C5 15.5523 5.44772 16 6 16ZM10 16C10.5523 16 11 15.5523 11 15V9C11 8.44771 10.5523 8 10 8C9.44771 8 9 8.44771 9 9V15C9 15.5523 9.44771 16 10 16Z" fill="#E35186"/>
</svg>
